<?xml version="1.0" standalone="no"?>
<!DOCTYPE svg PUBLIC "-//W3C//DTD SVG 20010904//EN"
 "http://www.w3.org/TR/2001/REC-SVG-20010904/DTD/svg10.dtd">
<svg version="1.0" xmlns="http://www.w3.org/2000/svg"
 width="16.000000pt" height="16.000000pt" viewBox="0 0 16.000000 16.000000"
 preserveAspectRatio="xMidYMid meet">
<metadata>
Created by potrace 1.11, written by Peter Selinger 2001-2013
</metadata>
<g transform="translate(0.000000,16.000000) scale(0.006250,-0.006250)"
fill="#000000" stroke="none">
<path d="M0 2225 l0 -125 83 0 82 0 2 -100 3 -100 -44 0 c-45 0 -45 0 -64 52
-21 56 -43 76 -34 32 3 -19 1 -25 -7 -20 -17 11 -14 -21 5 -49 16 -24 15 -25
-5 -25 l-21 0 0 -840 0 -840 198 2 197 3 11 55 c16 83 32 128 74 206 27 51 39
89 44 137 4 38 15 76 25 89 10 13 24 57 31 98 17 91 88 249 126 279 15 12 29
19 32 16 3 -3 -3 -12 -14 -20 -26 -20 -4 -19 24 1 33 23 38 10 11 -27 -22 -32
-14 -32 26 0 11 8 5 -1 -14 -21 -19 -21 -38 -35 -42 -32 -4 2 -10 0 -13 -5 -8
-12 67 -5 93 9 28 15 51 12 51 -5 0 -10 11 -15 35 -15 42 0 85 18 85 36 0 13
35 12 79 -2 8 -2 11 1 8 9 -3 7 1 21 9 32 8 10 14 26 14 34 0 9 5 33 11 54 10
38 29 42 29 7 0 -27 49 -178 59 -185 5 -3 7 4 4 16 -6 20 -4 20 45 -5 28 -14
65 -26 82 -26 16 0 38 -8 48 -18 14 -14 25 -16 55 -9 29 7 47 22 77 61 21 28
43 64 49 79 6 16 16 25 21 22 6 -4 8 -10 5 -15 -3 -5 2 -24 11 -41 14 -27 14
-38 4 -69 -10 -29 -10 -45 0 -74 14 -44 24 -47 18 -6 -3 16 -1 30 4 30 4 0 8
-6 8 -13 0 -7 7 -22 16 -33 8 -10 13 -13 9 -6 -11 22 -13 82 -2 75 5 -3 13 0
18 8 6 11 12 9 29 -6 47 -42 67 -97 69 -192 1 -15 6 -21 15 -17 19 7 36 56 30
86 -2 13 4 1 15 -27 11 -27 20 -45 21 -40 0 6 7 2 14 -8 13 -16 15 -13 25 30
13 61 17 169 6 207 -4 17 -21 54 -37 84 -15 30 -28 67 -28 84 0 28 2 29 33 23
17 -4 52 -15 77 -25 25 -10 59 -21 75 -25 73 -16 132 -101 202 -293 62 -169
73 -235 69 -422 -2 -91 -1 -171 1 -178 4 -9 42 -12 144 -12 l139 0 0 771 0
771 -24 -4 c-15 -3 -27 2 -35 14 -9 15 -8 18 5 18 9 0 18 9 21 20 3 11 12 20
19 20 8 0 14 9 14 20 0 11 -7 20 -15 20 -8 0 -17 14 -21 35 -3 19 -10 38 -15
41 -19 11 -8 24 21 24 l30 0 0 101 0 101 -37 -2 c-79 -4 -103 0 -103 15 0 23
-37 55 -64 55 -16 0 -36 -14 -59 -40 l-34 -40 -166 0 -167 0 0 -100 0 -100 50
0 c49 0 50 -1 50 -30 0 -29 2 -30 45 -30 41 0 45 -2 45 -24 0 -21 -5 -24 -45
-24 -24 -1 -47 3 -50 8 -7 11 -178 14 -188 4 -3 -4 1 -13 9 -21 11 -11 18 -12
28 -4 11 9 15 9 18 0 3 -9 38 -13 116 -13 109 -1 113 -2 119 -24 3 -13 2 -26
-2 -30 -3 -4 -86 -9 -182 -12 l-176 -5 26 -31 c22 -25 25 -38 20 -68 -5 -35
-22 -59 -24 -37 -3 20 -5 26 -37 88 -36 69 -41 93 -17 73 22 -18 20 13 -1 35
-9 9 -19 36 -22 61 -3 27 -10 44 -18 44 -7 0 -15 8 -19 18 -7 24 -148 115
-201 130 -23 7 -63 13 -90 14 l-49 1 45 7 c44 7 42 8 -29 15 -14 1 -49 -4 -78
-13 -29 -8 -55 -13 -57 -11 -2 2 -2 16 1 32 5 26 8 27 64 27 40 0 59 -4 59
-12 0 -10 3 -9 9 1 5 7 14 10 20 7 6 -4 11 -2 11 3 0 7 -30 11 -80 11 -64 0
-80 3 -80 15 0 8 -9 24 -19 34 -27 27 -60 17 -68 -19 -4 -22 -12 -29 -37 -34
-49 -9 -474 -11 -483 -2 -4 4 -10 53 -13 109 l-5 102 -297 3 -298 2 0 -125z
m2284 -135 l7 -49 46 3 c29 3 49 10 55 20 14 25 30 19 26 -11 -3 -27 -4 -28
-61 -25 -49 3 -68 -1 -127 -29 -38 -19 -74 -43 -81 -55 -8 -17 -23 -23 -56
-26 -24 -2 -46 -1 -49 1 -2 2 -4 24 -4 48 0 30 5 45 15 49 9 4 15 19 15 36 0
17 -4 27 -10 23 -5 -3 -10 -1 -10 5 0 6 7 13 15 16 20 8 19 24 -2 26 -25 2 91
14 158 16 l56 2 7 -50z m176 10 c0 -23 -5 -40 -11 -40 -7 0 -9 11 -6 30 5 22
2 32 -11 39 -15 9 -14 10 6 11 19 0 22 -5 22 -40z m-2110 0 c0 -5 -4 -10 -9
-10 -6 0 -13 5 -16 10 -3 6 1 10 9 10 9 0 16 -4 16 -10z m-66 -55 c-4 -17 -10
-23 -16 -17 -6 6 -6 18 2 32 15 28 23 20 14 -15z m76 15 c0 -11 -4 -20 -10
-20 -5 0 -10 9 -10 20 0 11 5 20 10 20 6 0 10 -9 10 -20z m-153 -22 c-3 -7 -5
-2 -5 12 0 14 2 19 5 13 2 -7 2 -19 0 -25z m121 -11 c2 -18 8 -24 18 -20 9 3
14 -1 14 -12 0 -9 -3 -15 -7 -13 -51 25 -63 34 -63 48 0 40 33 37 38 -3z
m1022 23 c12 -8 11 -10 -7 -10 -12 0 -25 5 -28 10 -8 13 15 13 35 0z m-150
-30 c0 -11 -4 -20 -9 -20 -11 0 -22 26 -14 34 12 12 23 5 23 -14z m153 3 c-7
-2 -19 -2 -25 0 -7 3 -2 5 12 5 14 0 19 -2 13 -5z m1112 -53 c3 -6 -1 -7 -9
-4 -18 7 -21 14 -7 14 6 0 13 -4 16 -10z m-1643 -62 l3 -33 92 -3 c69 -2 93
-6 97 -17 4 -13 -9 -15 -81 -15 -103 0 -143 13 -166 52 -24 42 -22 48 17 48
32 0 35 -3 38 -32z m568 -10 c34 2 110 -16 120 -28 3 -4 27 -19 54 -35 36 -21
53 -39 67 -72 23 -53 29 -93 18 -115 -12 -22 -49 -12 -44 11 2 11 -7 24 -23
33 -24 14 -36 14 -95 3 -75 -14 -92 -25 -92 -58 0 -17 -6 -22 -25 -22 -15 0
-25 6 -26 15 -4 61 0 58 -76 70 -89 14 -105 19 -93 28 6 4 10 14 10 22 0 15 4
16 46 19 25 1 15 21 -10 21 -65 0 -16 85 60 106 24 6 51 9 59 6 8 -3 31 -5 50
-4z m301 -15 c13 -16 12 -17 -3 -4 -10 7 -18 15 -18 17 0 8 8 3 21 -13z
m-1494 -25 c-3 -8 -6 -5 -6 6 -1 11 2 17 5 13 3 -3 4 -12 1 -19z m553 1 c0
-11 -84 -12 -120 -1 -19 5 -9 8 40 12 70 6 80 4 80 -11z m-720 -29 c0 -5 -4
-10 -10 -10 -5 0 -10 5 -10 10 0 6 5 10 10 10 6 0 10 -4 10 -10z m890 -25 c78
0 82 -2 73 -35 -6 -23 -37 -25 -330 -13 -172 6 -221 17 -102 21 97 4 83 12
-19 12 -52 0 -92 4 -92 10 0 14 97 18 255 12 77 -4 174 -6 215 -7z m-806 -31
c3 -8 2 -12 -4 -9 -6 3 -10 10 -10 16 0 14 7 11 14 -7z m349 -11 c-13 -2 -35
-2 -50 0 -16 2 -5 4 22 4 28 0 40 -2 28 -4z m1162 -157 c14 -10 17 -21 12 -51
-8 -50 -17 -57 -74 -64 -87 -11 -121 -3 -138 29 -17 32 -20 80 -6 80 6 0 12
-4 16 -10 3 -5 13 -7 23 -4 16 5 16 5 0 -6 -25 -16 -22 -27 8 -34 40 -10 82 2
90 26 14 46 37 57 69 34z m407 -18 c-7 -7 -12 -8 -12 -2 0 6 3 14 7 17 3 4 9
5 12 2 2 -3 -1 -11 -7 -17z m-722 -3 c0 -8 -7 -15 -15 -15 -26 0 -18 20 13 29
1 1 2 -6 2 -14z m-146 -36 c-12 -20 -34 -8 -34 18 0 25 1 26 20 8 11 -10 17
-22 14 -26z m232 -11 c7 -20 23 -51 35 -67 20 -28 28 -31 73 -30 38 0 46 3 31
9 -11 5 -33 10 -50 11 -16 1 5 5 48 9 79 8 117 26 117 58 0 9 2 13 5 10 7 -7
-22 -175 -35 -208 -8 -20 -18 -25 -49 -27 -35 -2 -40 1 -51 28 -10 24 -17 29
-34 25 -33 -10 -138 -14 -164 -7 -22 6 -21 8 15 20 21 8 43 20 48 27 6 7 19
14 29 16 11 1 21 8 23 15 6 16 -35 27 -52 13 -10 -9 -20 -5 -45 18 -32 28 -32
28 -16 60 9 17 16 38 16 47 0 33 42 12 56 -27z m-116 -10 c0 -9 4 -8 10 2 5 8
10 10 10 4 0 -20 -25 -43 -50 -44 -71 -6 -101 0 -98 18 2 13 17 18 58 23 30 3
58 6 63 7 4 1 7 -4 7 -10z m-73 -74 c-3 -3 -12 -4 -19 -1 -8 3 -5 6 6 6 11 1
17 -2 13 -5z m45 -44 c22 -20 15 -26 -16 -14 -9 3 -16 12 -16 20 0 19 7 18 32
-6z m259 -114 c9 -19 7 -29 -7 -52 -37 -58 -96 -87 -155 -78 -39 7 -89 37 -89
55 0 5 35 9 78 9 70 1 112 13 112 34 0 3 -8 6 -17 6 -14 0 -11 6 12 25 38 31
53 31 66 1z m-736 -176 c-3 -5 -11 -10 -16 -10 -6 0 -7 5 -4 10 3 6 11 10 16
10 6 0 7 -4 4 -10z"/>
<path d="M2200 2025 c0 -25 23 -35 35 -15 3 6 -1 10 -9 10 -10 0 -13 6 -10 15
4 8 1 15 -5 15 -6 0 -11 -11 -11 -25z"/>
<path d="M728 1773 c6 -2 18 -2 25 0 6 3 1 5 -13 5 -14 0 -19 -2 -12 -5z"/>
<path d="M1680 2199 c0 -6 -9 -8 -20 -4 -11 4 -20 2 -20 -4 0 -6 -7 -11 -15
-11 -8 0 -15 -4 -15 -10 0 -5 -9 -10 -20 -10 -11 0 -20 -4 -20 -10 0 -5 -30
-10 -67 -12 -36 -2 -68 -8 -70 -13 -2 -7 20 -9 63 -5 l66 6 -5 -32 c-3 -17 -2
-35 1 -41 11 -17 85 -49 105 -45 21 4 23 22 2 22 -14 0 -14 3 0 30 15 29 35
40 35 20 0 -5 23 -10 50 -10 l50 0 0 -60 0 -60 -50 0 c-52 0 -63 -11 -31 -32
10 -6 17 -18 14 -25 -4 -10 8 -13 50 -13 l55 0 6 53 c3 28 6 88 7 132 l2 80
-67 3 c-57 2 -67 6 -64 20 1 9 -1 23 -5 30 -10 15 -37 16 -37 1z m-10 -44 c0
-8 -6 -12 -14 -9 -8 3 -12 12 -9 20 6 17 23 9 23 -11z m-40 -21 c0 -9 -5 -14
-12 -12 -18 6 -21 28 -4 28 9 0 16 -7 16 -16z m206 -8 c1 0 -1 -19 -4 -41 -5
-35 -6 -37 -12 -15 -4 15 -12 24 -22 22 -9 -1 -18 4 -22 13 -3 9 -18 15 -40
15 -19 0 -37 4 -40 8 -3 6 135 4 140 -2z m-231 -26 c10 -11 16 -20 13 -20 -3
0 -13 9 -23 20 -10 11 -16 20 -13 20 3 0 13 -9 23 -20z m75 4 c0 -9 -5 -14
-12 -12 -18 6 -21 28 -4 28 9 0 16 -7 16 -16z"/>
<path d="M1742 1824 c11 -11 25 -14 42 -10 40 10 31 26 -16 26 -39 0 -41 -1
-26 -16z"/>
<path d="M991 980 c9 -26 70 -51 112 -46 20 2 37 0 37 -5 0 -5 4 -9 9 -9 12 0
4 29 -14 54 -13 17 -15 17 -37 2 -30 -21 -72 -20 -94 1 -13 13 -16 14 -13 3z"/>
<path d="M1503 954 c-16 -16 -17 -28 -3 -19 7 4 9 -2 6 -17 -3 -21 0 -24 30
-26 38 -3 38 -3 24 32 -12 33 -41 48 -57 30z"/>
<path d="M1190 870 c0 -5 5 -10 11 -10 5 0 7 5 4 10 -3 6 -8 10 -11 10 -2 0
-4 -4 -4 -10z"/>
<path d="M1362 840 c0 -14 2 -19 5 -12 2 6 2 18 0 25 -3 6 -5 1 -5 -13z"/>
<path d="M1352 780 c0 -14 2 -19 5 -12 2 6 2 18 0 25 -3 6 -5 1 -5 -13z"/>
<path d="M1337 601 c-3 -16 -19 -49 -36 -72 -29 -43 -29 -44 -8 -52 36 -13 45
-1 52 73 7 73 2 104 -8 51z"/>
<path d="M710 600 c0 -13 18 -22 24 -11 3 5 15 7 25 4 11 -3 27 0 37 5 14 8 6
10 -34 10 -29 1 -52 -3 -52 -8z"/>
<path d="M828 593 c6 -2 18 -2 25 0 6 3 1 5 -13 5 -14 0 -19 -2 -12 -5z"/>
<path d="M725 548 c-2 -7 -6 -27 -9 -45 -3 -24 -1 -30 10 -26 9 3 11 14 7 35
-4 20 -1 33 8 39 10 6 11 9 1 9 -7 0 -15 -6 -17 -12z"/>
<path d="M760 540 c0 -5 5 -10 11 -10 5 0 7 5 4 10 -3 6 -8 10 -11 10 -2 0 -4
-4 -4 -10z"/>
<path d="M830 526 c0 -2 7 -7 16 -10 8 -3 12 -2 9 4 -6 10 -25 14 -25 6z"/>
<path d="M1700 481 c0 -5 9 -11 21 -14 16 -4 18 -3 8 9 -13 16 -29 19 -29 5z"/>
<path d="M1960 465 c0 -8 5 -15 10 -15 6 0 10 7 10 15 0 8 -4 15 -10 15 -5 0
-10 -7 -10 -15z"/>
<path d="M1950 420 c0 -5 5 -10 10 -10 6 0 10 5 10 10 0 6 -4 10 -10 10 -5 0
-10 -4 -10 -10z"/>
<path d="M727 358 c-4 -12 -3 -25 2 -28 4 -3 7 -27 6 -55 -2 -48 6 -65 32 -65
9 0 10 7 3 24 -5 13 -12 52 -16 85 -7 63 -17 78 -27 39z"/>
</g>
</svg>
